<?xml version="1.0" standalone="no"?>
<!DOCTYPE svg PUBLIC "-//W3C//DTD SVG 1.1//EN" "http://www.w3.org/Graphics/SVG/1.1/DTD/svg11.dtd"><svg t="1660147795919"
  class="icon" viewBox="0 0 1024 1024" version="1.1" xmlns="http://www.w3.org/2000/svg" p-id="2030" width="32"
  height="32" xmlns:xlink="http://www.w3.org/1999/xlink">
  <path
    d="M861.866667 219.733333L588.8 61.866667c-42.666667-23.466667-110.933333-23.466667-153.6 0L162.133333 219.733333c-42.666667 25.6-76.8 83.2-76.8 132.266667v317.866667c0 51.2 32 106.666667 76.8 132.266666L435.2 960c21.333333 12.8 49.066667 19.2 76.8 19.2s55.466667-6.4 76.8-19.2l273.066667-157.866667c42.666667-25.6 76.8-83.2 76.8-132.266666V352c0-49.066667-32-106.666667-76.8-132.266667zM896 672c0 25.6-12.8 55.466667-32 76.8-21.333333-14.933333-59.733333-44.8-87.466667-72.533333 12.8-2.133333 32-6.4 40.533334-8.533334 32-10.666667 53.333333-32 53.333333-34.133333 2.133333-2.133333 4.266667-4.266667 2.133333-8.533333s-2.133333-6.4-4.266666-8.533334c-61.866667-53.333333-145.066667-66.133333-179.2-72.533333-4.266667 0-8.533333-2.133333-10.666667-2.133333-19.2-32-76.8-100.266667-125.866667-130.133334l53.333334-83.2c2.133333-4.266667 2.133333-8.533333 0-12.8-2.133333-4.266667-6.4-4.266667-10.666667-4.266666l-44.8 12.8-12.8-72.533334c0-4.266667-2.133333-6.4-6.4-8.533333-4.266667-2.133333-6.4-2.133333-10.666667 0l-61.866666 40.533333-19.2-40.533333c-2.133333-4.266667-6.4-6.4-10.666667-6.4s-8.533333 4.266667-8.533333 8.533333L396.8 341.333333c-36.266667-8.533333-81.066667 6.4-93.866667 10.666667-2.133333 0-2.133333 0-4.266666-2.133333-38.4-12.8-85.333333-25.6-108.8-8.533334-8.533333 4.266667-14.933333 12.8-14.933334 23.466667-4.266667 32 23.466667 51.2 40.533334 64 2.133333 2.133333 6.4 4.266667 6.4 6.4l6.4 4.266667c8.533333 6.4 14.933333 12.8 21.333333 19.2 2.133333 2.133333 2.133333 6.4 6.4 10.666666 2.133333 4.266667 4.266667 12.8 10.666667 19.2 17.066667 32 61.866667 66.133333 85.333333 83.2-4.266667 44.8-2.133333 64 8.533333 102.4 8.533333 25.6 27.733333 51.2 46.933334 55.466667 8.533333 2.133333 14.933333 0 19.2-4.266667 8.533333-8.533333 10.666667-25.6 12.8-57.6 12.8 14.933333 27.733333 34.133333 38.4 42.666667 36.266667 32 70.4 49.066667 72.533333 49.066667h4.266667c4.266667 0 8.533333-2.133333 10.666666-6.4 2.133333-4.266667 0-10.666667-4.266666-14.933334 0 0-32-14.933333-66.133334-44.8-17.066667-14.933333-53.333333-61.866667-53.333333-61.866666-2.133333-2.133333-6.4-4.266667-10.666667-4.266667s-6.4 2.133333-8.533333 6.4c-2.133333 2.133333-2.133333 4.266667-2.133333 17.066667 0 12.8-2.133333 51.2-6.4 57.6-4.266667 0-25.6-14.933333-32-40.533334-10.666667-38.4-12.8-55.466667-6.4-100.266666 0-4.266667-2.133333-8.533333-4.266667-10.666667-32-21.333333-70.4-55.466667-85.333333-78.933333-4.266667-8.533333-6.4-12.8-8.533334-19.2-2.133333-6.4-4.266667-10.666667-8.533333-14.933334-6.4-8.533333-14.933333-14.933333-23.466667-21.333333l-10.666666-4.266667c-2.133333-2.133333-4.266667-4.266667-8.533334-6.4-14.933333-10.666667-34.133333-25.6-32-44.8 0-4.266667 2.133333-6.4 6.4-8.533333 12.8-8.533333 44.8-4.266667 91.733334 10.666667 4.266667 2.133333 8.533333 2.133333 10.666666 2.133333h4.266667s53.333333-19.2 87.466667-10.666667c2.133333 2.133333 12.8 27.733333 66.133333 51.2 27.733333 12.8 49.066667 14.933333 61.866667 14.933334 6.4 0 10.666667 0 14.933333-2.133334 46.933333 27.733333 108.8 100.266667 125.866667 130.133334 2.133333 6.4 6.4 6.4 23.466666 8.533333 32 4.266667 104.533333 17.066667 160 59.733333-8.533333 6.4-21.333333 14.933333-36.266666 21.333334-10.666667 4.266667-44.8 10.666667-55.466667 12.8-4.266667 0-6.4 4.266667-8.533333 6.4-2.133333 4.266667 0 8.533333 2.133333 10.666666 25.6 27.733333 72.533333 66.133333 100.266667 85.333334-2.133333 2.133333-4.266667 2.133333-6.4 4.266666l-273.066667 157.866667c-29.866667 17.066667-81.066667 17.066667-110.933333 0L183.466667 765.866667C153.6 748.8 128 706.133333 128 672v-320c0-34.133333 25.6-78.933333 55.466667-96l273.066666-157.866667C471.466667 89.6 490.666667 85.333333 512 85.333333s40.533333 4.266667 55.466667 12.8L840.533333 256c29.866667 17.066667 55.466667 59.733333 55.466667 96v320zM531.2 407.466667c-6.4 2.133333-27.733333 2.133333-64-12.8s-49.066667-32-53.333333-36.266667l19.2-74.666667 12.8 25.6 6.4 6.4c2.133333 0 6.4 0 8.533333-2.133333l59.733333-38.4 10.666667 68.266667c0 2.133333 2.133333 6.4 4.266667 6.4 2.133333 2.133333 6.4 2.133333 8.533333 2.133333l27.733333-8.533333-40.533333 64z"
    p-id="2031" fill="#ffffff"></path>
  <path
    d="M322.133333 405.333333c-6.4-2.133333-10.666667 2.133333-12.8 8.533334-2.133333 6.4 2.133333 10.666667 8.533334 12.8 2.133333 0 4.266667 2.133333 8.533333 6.4l4.266667 4.266666c0 6.4 4.266667 10.666667 10.666666 10.666667s10.666667-4.266667 10.666667-10.666667-4.266667-12.8-10.666667-19.2c-4.266667-6.4-12.8-10.666667-19.2-12.8z"
    p-id="2032" fill="#ffffff"></path>
</svg>